# xmcd
#
# Track frame offsets: 
#        150
#        44610
#        77375
#        115230
#        150255
#        171560
#
# Disc length: 2662 seconds
#
# Revision: 1
# Processed by: cddbd v1.5.2PL0 Copyright (c) Steve Scherf et al.
# Submitted via: ExactAudioCopy v0.99pb5
#
DISCID=400a6406
DTITLE=Arthur Doyle - The Songwriter
DYEAR=1994
DGENRE=Jazz
TTITLE0=Ancestor
TTITLE1=African Express
TTITLE2=Noah Black Ark
TTITLE3=Are You Sleeping
TTITLE4=Prophet John C
TTITLE5=Chemistry of Happiness
EXTD=YEAR: 1994
EXTT0=
EXTT1=
EXTT2=
EXTT3=
EXTT4=
EXTT5=
PLAYORDER=
